<svg height="511pt" viewBox="1 -79 511.999 511" width="511pt" xmlns="http://www.w3.org/2000/svg"><path d="m397.242188 353.601562h97.101562c9.75 0 17.65625-7.902343 17.65625-17.652343v-317.792969c0-9.753906-7.90625-17.65625-17.65625-17.65625h-476.6875c-9.753906 0-17.65625 7.90625-17.65625 17.65625v317.792969c0 9.75 7.902344 17.652343 17.65625 17.652343zm0 0" fill="#c03a2b"/><g fill="#fff"><path d="m337.8125 143.25 24.542969 8.324219 20.769531-15.5-.324219 25.917969 21.148438 14.960937-24.742188 7.691406-7.6875 24.75-14.964843-21.15625-25.917969.324219 15.5-20.769531zm0 0"/><path d="m264.828125 256.5c20.808594 0 40.78125-8.179688 55.613281-22.777344-25.722656 45.296875-78.730468 67.585938-129.097656 54.28125-50.363281-13.304687-85.449219-58.859375-85.449219-110.953125 0-52.089843 35.085938-97.648437 85.449219-110.953125 50.367188-13.304687 103.371094 8.984375 129.097656 54.28125-25.59375-25.117187-64.84375-29.96875-95.785156-11.839844-30.941406 18.125-45.898438 54.738282-36.503906 89.34375 9.398437 34.605469 40.816406 58.625 76.675781 58.617188zm0 0"/></g></svg>